<svg width="240" height="258" viewBox="0 0 240 258" fill="none" xmlns="http://www.w3.org/2000/svg">
<path d="M193 73C193 113.317 160.317 146 120 146C79.6832 146 47 113.317 47 73C47 32.6832 79.6832 0 120 0C160.317 0 193 32.6832 193 73ZM67.44 73C67.44 102.028 90.9719 125.56 120 125.56C149.028 125.56 172.56 102.028 172.56 73C172.56 43.9719 149.028 20.44 120 20.44C90.9719 20.44 67.44 43.9719 67.44 73Z" fill="#A3A3A3"/>
<path d="M81.3988 11.0407C68.3143 19.1925 58.1464 31.2773 52.3523 45.5631C46.5582 59.8489 45.4354 75.6023 49.1448 90.5654C52.8543 105.529 61.2055 118.933 73.0017 128.858C84.7978 138.783 99.4332 144.719 114.81 145.815L116.263 125.427C105.192 124.638 94.6544 120.364 86.1612 113.218C77.668 106.072 71.6551 96.4206 68.9843 85.6471C66.3135 74.8736 67.1219 63.5312 71.2936 53.2454C75.4654 42.9597 82.7863 34.2586 92.2072 28.3893L81.3988 11.0407Z" fill="#FF2727"/>
<path d="M171.619 21.3812C159.842 9.60411 144.391 2.20836 127.832 0.421387C111.273 -1.36559 94.6008 2.56366 80.5822 11.557L91.6192 28.7611C101.713 22.2858 113.717 19.4568 125.639 20.7434C137.562 22.03 148.686 27.355 157.166 35.8345L171.619 21.3812Z" fill="#52C93F"/>
<path d="M89.4823 139.315C106.339 147.072 125.517 148.119 143.118 142.243C160.718 136.367 175.421 124.008 184.236 107.68C193.052 91.3518 195.318 72.2795 190.575 54.3401C185.832 36.4007 174.435 20.9408 158.701 11.1033L147.865 28.4344C159.193 35.5174 167.399 46.6485 170.814 59.5649C174.229 72.4812 172.597 86.2133 166.25 97.9696C159.903 109.726 149.317 118.624 136.645 122.855C123.972 127.086 110.164 126.332 98.0272 120.747L89.4823 139.315Z" fill="#006AFF"/>
<circle cx="8" cy="182" r="8" fill="#006AFF"/>
<path d="M28.7727 177.614V176.364H37.5V177.614H33.8409V188H32.4318V177.614H28.7727ZM41.7727 188.182C40.9848 188.182 40.2936 187.994 39.6989 187.619C39.108 187.244 38.6458 186.72 38.3125 186.045C37.983 185.371 37.8182 184.583 37.8182 183.682C37.8182 182.773 37.983 181.979 38.3125 181.301C38.6458 180.623 39.108 180.097 39.6989 179.722C40.2936 179.347 40.9848 179.159 41.7727 179.159C42.5606 179.159 43.25 179.347 43.8409 179.722C44.4356 180.097 44.8977 180.623 45.2273 181.301C45.5606 181.979 45.7273 182.773 45.7273 183.682C45.7273 184.583 45.5606 185.371 45.2273 186.045C44.8977 186.72 44.4356 187.244 43.8409 187.619C43.25 187.994 42.5606 188.182 41.7727 188.182ZM41.7727 186.977C42.3712 186.977 42.8636 186.824 43.25 186.517C43.6364 186.21 43.9223 185.807 44.108 185.307C44.2936 184.807 44.3864 184.265 44.3864 183.682C44.3864 183.098 44.2936 182.555 44.108 182.051C43.9223 181.547 43.6364 181.14 43.25 180.83C42.8636 180.519 42.3712 180.364 41.7727 180.364C41.1742 180.364 40.6818 180.519 40.2955 180.83C39.9091 181.14 39.6231 181.547 39.4375 182.051C39.2519 182.555 39.1591 183.098 39.1591 183.682C39.1591 184.265 39.2519 184.807 39.4375 185.307C39.6231 185.807 39.9091 186.21 40.2955 186.517C40.6818 186.824 41.1742 186.977 41.7727 186.977ZM51.5696 179.273V180.409H47.0469V179.273H51.5696ZM48.3651 177.182H49.706V185.5C49.706 185.879 49.7609 186.163 49.8707 186.352C49.9844 186.538 50.1283 186.663 50.3026 186.727C50.4806 186.788 50.6681 186.818 50.8651 186.818C51.0128 186.818 51.134 186.811 51.2287 186.795C51.3234 186.777 51.3991 186.761 51.456 186.75L51.7287 187.955C51.6378 187.989 51.5109 188.023 51.348 188.057C51.1851 188.095 50.9787 188.114 50.7287 188.114C50.3499 188.114 49.9787 188.032 49.6151 187.869C49.2552 187.706 48.956 187.458 48.7173 187.125C48.4825 186.792 48.3651 186.371 48.3651 185.864V177.182ZM56.1548 188.205C55.6018 188.205 55.0999 188.1 54.6491 187.892C54.1984 187.68 53.8404 187.375 53.5753 186.977C53.3101 186.576 53.1776 186.091 53.1776 185.523C53.1776 185.023 53.276 184.617 53.473 184.307C53.67 183.992 53.9332 183.746 54.2628 183.568C54.5923 183.39 54.956 183.258 55.3537 183.17C55.7552 183.08 56.1586 183.008 56.5639 182.955C57.0942 182.886 57.5241 182.835 57.8537 182.801C58.187 182.763 58.4295 182.701 58.581 182.614C58.7363 182.527 58.8139 182.375 58.8139 182.159V182.114C58.8139 181.553 58.6605 181.117 58.3537 180.807C58.0507 180.496 57.5904 180.341 56.973 180.341C56.3329 180.341 55.831 180.481 55.4673 180.761C55.1037 181.042 54.848 181.341 54.7003 181.659L53.4276 181.205C53.6548 180.674 53.9579 180.261 54.3366 179.966C54.7192 179.667 55.1359 179.458 55.5866 179.341C56.0412 179.22 56.4882 179.159 56.9276 179.159C57.2079 179.159 57.5298 179.193 57.8935 179.261C58.2609 179.326 58.6151 179.46 58.956 179.665C59.3007 179.869 59.5866 180.178 59.8139 180.591C60.0412 181.004 60.1548 181.557 60.1548 182.25V188H58.8139V186.818H58.7457C58.6548 187.008 58.5033 187.21 58.2912 187.426C58.0791 187.642 57.7969 187.826 57.4446 187.977C57.0923 188.129 56.6624 188.205 56.1548 188.205ZM56.3594 187C56.8897 187 57.3366 186.896 57.7003 186.688C58.0677 186.479 58.3442 186.21 58.5298 185.881C58.7192 185.551 58.8139 185.205 58.8139 184.841V183.614C58.7571 183.682 58.6321 183.744 58.4389 183.801C58.2495 183.854 58.0298 183.902 57.7798 183.943C57.5336 183.981 57.2931 184.015 57.0582 184.045C56.8272 184.072 56.6397 184.095 56.4957 184.114C56.1473 184.159 55.8215 184.233 55.5185 184.335C55.2192 184.434 54.9768 184.583 54.7912 184.784C54.6094 184.981 54.5185 185.25 54.5185 185.591C54.5185 186.057 54.6908 186.409 55.0355 186.648C55.384 186.883 55.8253 187 56.3594 187ZM63.9432 176.364V188H62.6023V176.364H63.9432ZM71.081 188V176.364H72.4901V181.545H78.6946V176.364H80.1037V188H78.6946V182.795H72.4901V188H71.081ZM82.7429 188V179.273H84.0838V188H82.7429ZM83.4247 177.818C83.1634 177.818 82.938 177.729 82.7486 177.551C82.563 177.373 82.4702 177.159 82.4702 176.909C82.4702 176.659 82.563 176.445 82.7486 176.267C82.938 176.089 83.1634 176 83.4247 176C83.6861 176 83.9096 176.089 84.0952 176.267C84.2846 176.445 84.3793 176.659 84.3793 176.909C84.3793 177.159 84.2846 177.373 84.0952 177.551C83.9096 177.729 83.6861 177.818 83.4247 177.818ZM86.5398 188V179.273H87.8352V180.591H87.9261C88.0852 180.159 88.3731 179.809 88.7898 179.54C89.2064 179.271 89.6761 179.136 90.1989 179.136C90.2973 179.136 90.4205 179.138 90.5682 179.142C90.7159 179.146 90.8277 179.152 90.9034 179.159V180.523C90.858 180.511 90.7538 180.494 90.5909 180.472C90.4318 180.445 90.2633 180.432 90.0852 180.432C89.661 180.432 89.2822 180.521 88.9489 180.699C88.6193 180.873 88.358 181.116 88.1648 181.426C87.9754 181.733 87.8807 182.083 87.8807 182.477V188H86.5398ZM95.8864 188.182C95.0455 188.182 94.3201 187.996 93.7102 187.625C93.1042 187.25 92.6364 186.727 92.3068 186.057C91.9811 185.383 91.8182 184.598 91.8182 183.705C91.8182 182.811 91.9811 182.023 92.3068 181.341C92.6364 180.655 93.0947 180.121 93.6818 179.739C94.2727 179.352 94.9621 179.159 95.75 179.159C96.2045 179.159 96.6534 179.235 97.0966 179.386C97.5398 179.538 97.9432 179.784 98.3068 180.125C98.6705 180.462 98.9602 180.909 99.1761 181.466C99.392 182.023 99.5 182.708 99.5 183.523V184.091H92.7727V182.932H98.1364C98.1364 182.439 98.0379 182 97.8409 181.614C97.6477 181.227 97.3712 180.922 97.0114 180.699C96.6553 180.475 96.2348 180.364 95.75 180.364C95.2159 180.364 94.7538 180.496 94.3636 180.761C93.9773 181.023 93.6799 181.364 93.4716 181.784C93.2633 182.205 93.1591 182.655 93.1591 183.136V183.909C93.1591 184.568 93.2727 185.127 93.5 185.585C93.7311 186.04 94.0511 186.386 94.4602 186.625C94.8693 186.86 95.3447 186.977 95.8864 186.977C96.2386 186.977 96.5568 186.928 96.8409 186.83C97.1288 186.727 97.3769 186.576 97.5852 186.375C97.7936 186.17 97.9545 185.917 98.0682 185.614L99.3636 185.977C99.2273 186.417 98.9981 186.803 98.6761 187.136C98.3542 187.466 97.9564 187.723 97.483 187.909C97.0095 188.091 96.4773 188.182 95.8864 188.182ZM104.835 188.182C104.108 188.182 103.466 187.998 102.909 187.631C102.352 187.259 101.917 186.737 101.602 186.062C101.288 185.384 101.131 184.583 101.131 183.659C101.131 182.742 101.288 181.947 101.602 181.273C101.917 180.598 102.354 180.078 102.915 179.71C103.475 179.343 104.123 179.159 104.858 179.159C105.426 179.159 105.875 179.254 106.205 179.443C106.538 179.629 106.792 179.841 106.966 180.08C107.144 180.314 107.282 180.508 107.381 180.659H107.494V176.364H108.835V188H107.54V186.659H107.381C107.282 186.818 107.142 187.019 106.96 187.261C106.778 187.5 106.519 187.714 106.182 187.903C105.845 188.089 105.396 188.182 104.835 188.182ZM105.017 186.977C105.555 186.977 106.009 186.837 106.381 186.557C106.752 186.273 107.034 185.881 107.227 185.381C107.42 184.877 107.517 184.295 107.517 183.636C107.517 182.985 107.422 182.415 107.233 181.926C107.044 181.434 106.763 181.051 106.392 180.778C106.021 180.502 105.563 180.364 105.017 180.364C104.449 180.364 103.975 180.509 103.597 180.801C103.222 181.089 102.939 181.481 102.75 181.977C102.564 182.47 102.472 183.023 102.472 183.636C102.472 184.258 102.566 184.822 102.756 185.33C102.949 185.833 103.233 186.235 103.608 186.534C103.987 186.83 104.456 186.977 105.017 186.977Z" fill="#1A1919"/>
<path d="M192.841 188.159C192.174 188.159 191.574 188.027 191.04 187.761C190.506 187.496 190.078 187.133 189.756 186.67C189.434 186.208 189.258 185.682 189.227 185.091H190.591C190.644 185.617 190.883 186.053 191.307 186.398C191.735 186.739 192.246 186.909 192.841 186.909C193.318 186.909 193.742 186.797 194.114 186.574C194.489 186.35 194.782 186.044 194.994 185.653C195.21 185.259 195.318 184.814 195.318 184.318C195.318 183.811 195.206 183.358 194.983 182.96C194.763 182.559 194.46 182.242 194.074 182.011C193.688 181.78 193.246 181.663 192.75 181.659C192.394 181.655 192.028 181.71 191.653 181.824C191.278 181.934 190.97 182.076 190.727 182.25L189.409 182.091L190.114 176.364H196.159V177.614H191.295L190.886 181.045H190.955C191.193 180.856 191.492 180.699 191.852 180.574C192.212 180.449 192.587 180.386 192.977 180.386C193.689 180.386 194.324 180.557 194.881 180.898C195.441 181.235 195.881 181.697 196.199 182.284C196.521 182.871 196.682 183.542 196.682 184.295C196.682 185.038 196.515 185.701 196.182 186.284C195.852 186.864 195.398 187.322 194.818 187.659C194.239 187.992 193.58 188.159 192.841 188.159ZM198.666 185.614V184.455L203.78 176.364H204.621V178.159H204.053L200.189 184.273V184.364H207.075V185.614H198.666ZM204.143 188V185.261V184.722V176.364H205.484V188H204.143ZM215.136 185.818V185.205C215.136 184.78 215.223 184.392 215.398 184.04C215.576 183.684 215.833 183.4 216.17 183.188C216.511 182.972 216.924 182.864 217.409 182.864C217.902 182.864 218.314 182.972 218.648 183.188C218.981 183.4 219.233 183.684 219.403 184.04C219.574 184.392 219.659 184.78 219.659 185.205V185.818C219.659 186.242 219.572 186.633 219.398 186.989C219.227 187.341 218.973 187.625 218.636 187.841C218.303 188.053 217.894 188.159 217.409 188.159C216.917 188.159 216.502 188.053 216.165 187.841C215.828 187.625 215.572 187.341 215.398 186.989C215.223 186.633 215.136 186.242 215.136 185.818ZM216.295 185.205V185.818C216.295 186.17 216.379 186.487 216.545 186.767C216.712 187.044 217 187.182 217.409 187.182C217.807 187.182 218.087 187.044 218.25 186.767C218.417 186.487 218.5 186.17 218.5 185.818V185.205C218.5 184.852 218.42 184.538 218.261 184.261C218.102 183.981 217.818 183.841 217.409 183.841C217.011 183.841 216.725 183.981 216.551 184.261C216.381 184.538 216.295 184.852 216.295 185.205ZM209.341 179.159V178.545C209.341 178.121 209.428 177.733 209.602 177.381C209.78 177.025 210.038 176.741 210.375 176.528C210.716 176.312 211.129 176.205 211.614 176.205C212.106 176.205 212.519 176.312 212.852 176.528C213.186 176.741 213.438 177.025 213.608 177.381C213.778 177.733 213.864 178.121 213.864 178.545V179.159C213.864 179.583 213.777 179.973 213.602 180.33C213.432 180.682 213.178 180.966 212.841 181.182C212.508 181.394 212.098 181.5 211.614 181.5C211.121 181.5 210.706 181.394 210.369 181.182C210.032 180.966 209.777 180.682 209.602 180.33C209.428 179.973 209.341 179.583 209.341 179.159ZM210.5 178.545V179.159C210.5 179.511 210.583 179.828 210.75 180.108C210.917 180.384 211.205 180.523 211.614 180.523C212.011 180.523 212.292 180.384 212.455 180.108C212.621 179.828 212.705 179.511 212.705 179.159V178.545C212.705 178.193 212.625 177.879 212.466 177.602C212.307 177.322 212.023 177.182 211.614 177.182C211.216 177.182 210.93 177.322 210.756 177.602C210.585 177.879 210.5 178.193 210.5 178.545ZM209.773 188L217.773 176.364H219.068L211.068 188H209.773Z" fill="#1A1919"/>
<path d="M231.842 187V179.896L229.192 182.555L228.028 181.402L232.682 176.759L237.325 181.402L236.182 182.555L233.522 179.896V187H231.842Z" fill="#52C93F"/>
<circle cx="8" cy="214" r="8" fill="#52C93F"/>
<path d="M28.7727 209.614V208.364H37.5V209.614H33.8409V220H32.4318V209.614H28.7727ZM41.7727 220.182C40.9848 220.182 40.2936 219.994 39.6989 219.619C39.108 219.244 38.6458 218.72 38.3125 218.045C37.983 217.371 37.8182 216.583 37.8182 215.682C37.8182 214.773 37.983 213.979 38.3125 213.301C38.6458 212.623 39.108 212.097 39.6989 211.722C40.2936 211.347 40.9848 211.159 41.7727 211.159C42.5606 211.159 43.25 211.347 43.8409 211.722C44.4356 212.097 44.8977 212.623 45.2273 213.301C45.5606 213.979 45.7273 214.773 45.7273 215.682C45.7273 216.583 45.5606 217.371 45.2273 218.045C44.8977 218.72 44.4356 219.244 43.8409 219.619C43.25 219.994 42.5606 220.182 41.7727 220.182ZM41.7727 218.977C42.3712 218.977 42.8636 218.824 43.25 218.517C43.6364 218.21 43.9223 217.807 44.108 217.307C44.2936 216.807 44.3864 216.265 44.3864 215.682C44.3864 215.098 44.2936 214.555 44.108 214.051C43.9223 213.547 43.6364 213.14 43.25 212.83C42.8636 212.519 42.3712 212.364 41.7727 212.364C41.1742 212.364 40.6818 212.519 40.2955 212.83C39.9091 213.14 39.6231 213.547 39.4375 214.051C39.2519 214.555 39.1591 215.098 39.1591 215.682C39.1591 216.265 39.2519 216.807 39.4375 217.307C39.6231 217.807 39.9091 218.21 40.2955 218.517C40.6818 218.824 41.1742 218.977 41.7727 218.977ZM51.5696 211.273V212.409H47.0469V211.273H51.5696ZM48.3651 209.182H49.706V217.5C49.706 217.879 49.7609 218.163 49.8707 218.352C49.9844 218.538 50.1283 218.663 50.3026 218.727C50.4806 218.788 50.6681 218.818 50.8651 218.818C51.0128 218.818 51.134 218.811 51.2287 218.795C51.3234 218.777 51.3991 218.761 51.456 218.75L51.7287 219.955C51.6378 219.989 51.5109 220.023 51.348 220.057C51.1851 220.095 50.9787 220.114 50.7287 220.114C50.3499 220.114 49.9787 220.032 49.6151 219.869C49.2552 219.706 48.956 219.458 48.7173 219.125C48.4825 218.792 48.3651 218.371 48.3651 217.864V209.182ZM56.1548 220.205C55.6018 220.205 55.0999 220.1 54.6491 219.892C54.1984 219.68 53.8404 219.375 53.5753 218.977C53.3101 218.576 53.1776 218.091 53.1776 217.523C53.1776 217.023 53.276 216.617 53.473 216.307C53.67 215.992 53.9332 215.746 54.2628 215.568C54.5923 215.39 54.956 215.258 55.3537 215.17C55.7552 215.08 56.1586 215.008 56.5639 214.955C57.0942 214.886 57.5241 214.835 57.8537 214.801C58.187 214.763 58.4295 214.701 58.581 214.614C58.7363 214.527 58.8139 214.375 58.8139 214.159V214.114C58.8139 213.553 58.6605 213.117 58.3537 212.807C58.0507 212.496 57.5904 212.341 56.973 212.341C56.3329 212.341 55.831 212.481 55.4673 212.761C55.1037 213.042 54.848 213.341 54.7003 213.659L53.4276 213.205C53.6548 212.674 53.9579 212.261 54.3366 211.966C54.7192 211.667 55.1359 211.458 55.5866 211.341C56.0412 211.22 56.4882 211.159 56.9276 211.159C57.2079 211.159 57.5298 211.193 57.8935 211.261C58.2609 211.326 58.6151 211.46 58.956 211.665C59.3007 211.869 59.5866 212.178 59.8139 212.591C60.0412 213.004 60.1548 213.557 60.1548 214.25V220H58.8139V218.818H58.7457C58.6548 219.008 58.5033 219.21 58.2912 219.426C58.0791 219.642 57.7969 219.826 57.4446 219.977C57.0923 220.129 56.6624 220.205 56.1548 220.205ZM56.3594 219C56.8897 219 57.3366 218.896 57.7003 218.688C58.0677 218.479 58.3442 218.21 58.5298 217.881C58.7192 217.551 58.8139 217.205 58.8139 216.841V215.614C58.7571 215.682 58.6321 215.744 58.4389 215.801C58.2495 215.854 58.0298 215.902 57.7798 215.943C57.5336 215.981 57.2931 216.015 57.0582 216.045C56.8272 216.072 56.6397 216.095 56.4957 216.114C56.1473 216.159 55.8215 216.233 55.5185 216.335C55.2192 216.434 54.9768 216.583 54.7912 216.784C54.6094 216.981 54.5185 217.25 54.5185 217.591C54.5185 218.057 54.6908 218.409 55.0355 218.648C55.384 218.883 55.8253 219 56.3594 219ZM63.9432 208.364V220H62.6023V208.364H63.9432ZM80.4446 212H79.0355C78.9522 211.595 78.8063 211.239 78.598 210.932C78.3935 210.625 78.1435 210.367 77.848 210.159C77.5563 209.947 77.2325 209.788 76.8764 209.682C76.5204 209.576 76.1491 209.523 75.7628 209.523C75.0582 209.523 74.42 209.701 73.848 210.057C73.2798 210.413 72.8272 210.938 72.4901 211.631C72.1567 212.324 71.9901 213.174 71.9901 214.182C71.9901 215.189 72.1567 216.04 72.4901 216.733C72.8272 217.426 73.2798 217.951 73.848 218.307C74.42 218.663 75.0582 218.841 75.7628 218.841C76.1491 218.841 76.5204 218.788 76.8764 218.682C77.2325 218.576 77.5563 218.419 77.848 218.21C78.1435 217.998 78.3935 217.739 78.598 217.432C78.8063 217.121 78.9522 216.765 79.0355 216.364H80.4446C80.3385 216.958 80.1454 217.491 79.8651 217.96C79.5848 218.43 79.2363 218.83 78.8196 219.159C78.4029 219.485 77.9351 219.733 77.4162 219.903C76.901 220.074 76.3499 220.159 75.7628 220.159C74.7704 220.159 73.8878 219.917 73.1151 219.432C72.3423 218.947 71.7344 218.258 71.2912 217.364C70.848 216.47 70.6264 215.409 70.6264 214.182C70.6264 212.955 70.848 211.894 71.2912 211C71.7344 210.106 72.3423 209.417 73.1151 208.932C73.8878 208.447 74.7704 208.205 75.7628 208.205C76.3499 208.205 76.901 208.29 77.4162 208.46C77.9351 208.631 78.4029 208.881 78.8196 209.21C79.2363 209.536 79.5848 209.934 79.8651 210.403C80.1454 210.869 80.3385 211.402 80.4446 212ZM85.108 220.205C84.5549 220.205 84.053 220.1 83.6023 219.892C83.1515 219.68 82.7936 219.375 82.5284 218.977C82.2633 218.576 82.1307 218.091 82.1307 217.523C82.1307 217.023 82.2292 216.617 82.4261 216.307C82.6231 215.992 82.8864 215.746 83.2159 215.568C83.5455 215.39 83.9091 215.258 84.3068 215.17C84.7083 215.08 85.1117 215.008 85.517 214.955C86.0473 214.886 86.4773 214.835 86.8068 214.801C87.1402 214.763 87.3826 214.701 87.5341 214.614C87.6894 214.527 87.767 214.375 87.767 214.159V214.114C87.767 213.553 87.6136 213.117 87.3068 212.807C87.0038 212.496 86.5436 212.341 85.9261 212.341C85.286 212.341 84.7841 212.481 84.4205 212.761C84.0568 213.042 83.8011 213.341 83.6534 213.659L82.3807 213.205C82.608 212.674 82.911 212.261 83.2898 211.966C83.6723 211.667 84.089 211.458 84.5398 211.341C84.9943 211.22 85.4413 211.159 85.8807 211.159C86.161 211.159 86.483 211.193 86.8466 211.261C87.214 211.326 87.5682 211.46 87.9091 211.665C88.2538 211.869 88.5398 212.178 88.767 212.591C88.9943 213.004 89.108 213.557 89.108 214.25V220H87.767V218.818H87.6989C87.608 219.008 87.4564 219.21 87.2443 219.426C87.0322 219.642 86.75 219.826 86.3977 219.977C86.0455 220.129 85.6155 220.205 85.108 220.205ZM85.3125 219C85.8428 219 86.2898 218.896 86.6534 218.688C87.0208 218.479 87.2973 218.21 87.483 217.881C87.6723 217.551 87.767 217.205 87.767 216.841V215.614C87.7102 215.682 87.5852 215.744 87.392 215.801C87.2027 215.854 86.983 215.902 86.733 215.943C86.4867 215.981 86.2462 216.015 86.0114 216.045C85.7803 216.072 85.5928 216.095 85.4489 216.114C85.1004 216.159 84.7746 216.233 84.4716 216.335C84.1723 216.434 83.9299 216.583 83.7443 216.784C83.5625 216.981 83.4716 217.25 83.4716 217.591C83.4716 218.057 83.6439 218.409 83.9886 218.648C84.3371 218.883 84.7784 219 85.3125 219ZM92.8963 214.75V220H91.5554V211.273H92.8509V212.636H92.9645C93.169 212.193 93.4796 211.837 93.8963 211.568C94.313 211.295 94.8509 211.159 95.5099 211.159C96.1009 211.159 96.6179 211.28 97.0611 211.523C97.5043 211.761 97.849 212.125 98.0952 212.614C98.3414 213.098 98.4645 213.712 98.4645 214.455V220H97.1236V214.545C97.1236 213.86 96.9455 213.326 96.5895 212.943C96.2334 212.557 95.7448 212.364 95.1236 212.364C94.6955 212.364 94.313 212.456 93.9759 212.642C93.6425 212.828 93.3793 213.098 93.1861 213.455C92.9929 213.811 92.8963 214.242 92.8963 214.75ZM104.46 220.182C103.642 220.182 102.938 219.989 102.347 219.602C101.756 219.216 101.301 218.684 100.983 218.006C100.665 217.328 100.506 216.553 100.506 215.682C100.506 214.795 100.669 214.013 100.994 213.335C101.324 212.653 101.782 212.121 102.369 211.739C102.96 211.352 103.65 211.159 104.438 211.159C105.051 211.159 105.604 211.273 106.097 211.5C106.589 211.727 106.992 212.045 107.307 212.455C107.621 212.864 107.816 213.341 107.892 213.886H106.551C106.449 213.489 106.222 213.136 105.869 212.83C105.521 212.519 105.051 212.364 104.46 212.364C103.938 212.364 103.479 212.5 103.085 212.773C102.695 213.042 102.39 213.422 102.17 213.915C101.955 214.403 101.847 214.977 101.847 215.636C101.847 216.311 101.953 216.898 102.165 217.398C102.381 217.898 102.684 218.286 103.074 218.562C103.468 218.839 103.93 218.977 104.46 218.977C104.809 218.977 105.125 218.917 105.409 218.795C105.693 218.674 105.934 218.5 106.131 218.273C106.328 218.045 106.468 217.773 106.551 217.455H107.892C107.816 217.97 107.629 218.434 107.33 218.847C107.034 219.256 106.642 219.581 106.153 219.824C105.669 220.062 105.104 220.182 104.46 220.182ZM113.511 220.182C112.67 220.182 111.945 219.996 111.335 219.625C110.729 219.25 110.261 218.727 109.932 218.057C109.606 217.383 109.443 216.598 109.443 215.705C109.443 214.811 109.606 214.023 109.932 213.341C110.261 212.655 110.72 212.121 111.307 211.739C111.898 211.352 112.587 211.159 113.375 211.159C113.83 211.159 114.278 211.235 114.722 211.386C115.165 211.538 115.568 211.784 115.932 212.125C116.295 212.462 116.585 212.909 116.801 213.466C117.017 214.023 117.125 214.708 117.125 215.523V216.091H110.398V214.932H115.761C115.761 214.439 115.663 214 115.466 213.614C115.273 213.227 114.996 212.922 114.636 212.699C114.28 212.475 113.86 212.364 113.375 212.364C112.841 212.364 112.379 212.496 111.989 212.761C111.602 213.023 111.305 213.364 111.097 213.784C110.888 214.205 110.784 214.655 110.784 215.136V215.909C110.784 216.568 110.898 217.127 111.125 217.585C111.356 218.04 111.676 218.386 112.085 218.625C112.494 218.86 112.97 218.977 113.511 218.977C113.864 218.977 114.182 218.928 114.466 218.83C114.754 218.727 115.002 218.576 115.21 218.375C115.419 218.17 115.58 217.917 115.693 217.614L116.989 217.977C116.852 218.417 116.623 218.803 116.301 219.136C115.979 219.466 115.581 219.723 115.108 219.909C114.634 220.091 114.102 220.182 113.511 220.182ZM120.506 208.364V220H119.165V208.364H120.506ZM126.621 220.182C125.78 220.182 125.054 219.996 124.445 219.625C123.839 219.25 123.371 218.727 123.041 218.057C122.715 217.383 122.553 216.598 122.553 215.705C122.553 214.811 122.715 214.023 123.041 213.341C123.371 212.655 123.829 212.121 124.416 211.739C125.007 211.352 125.696 211.159 126.484 211.159C126.939 211.159 127.388 211.235 127.831 211.386C128.274 211.538 128.678 211.784 129.041 212.125C129.405 212.462 129.695 212.909 129.911 213.466C130.126 214.023 130.234 214.708 130.234 215.523V216.091H123.507V214.932H128.871C128.871 214.439 128.772 214 128.575 213.614C128.382 213.227 128.106 212.922 127.746 212.699C127.39 212.475 126.969 212.364 126.484 212.364C125.95 212.364 125.488 212.496 125.098 212.761C124.712 213.023 124.414 213.364 124.206 213.784C123.998 214.205 123.893 214.655 123.893 215.136V215.909C123.893 216.568 124.007 217.127 124.234 217.585C124.465 218.04 124.786 218.386 125.195 218.625C125.604 218.86 126.079 218.977 126.621 218.977C126.973 218.977 127.291 218.928 127.575 218.83C127.863 218.727 128.111 218.576 128.32 218.375C128.528 218.17 128.689 217.917 128.803 217.614L130.098 217.977C129.962 218.417 129.732 218.803 129.411 219.136C129.089 219.466 128.691 219.723 128.217 219.909C127.744 220.091 127.212 220.182 126.621 220.182ZM135.57 220.182C134.842 220.182 134.2 219.998 133.643 219.631C133.087 219.259 132.651 218.737 132.337 218.062C132.022 217.384 131.865 216.583 131.865 215.659C131.865 214.742 132.022 213.947 132.337 213.273C132.651 212.598 133.089 212.078 133.649 211.71C134.21 211.343 134.857 211.159 135.592 211.159C136.161 211.159 136.609 211.254 136.939 211.443C137.272 211.629 137.526 211.841 137.7 212.08C137.878 212.314 138.017 212.508 138.115 212.659H138.229V208.364H139.57V220H138.274V218.659H138.115C138.017 218.818 137.876 219.019 137.695 219.261C137.513 219.5 137.253 219.714 136.916 219.903C136.579 220.089 136.13 220.182 135.57 220.182ZM135.751 218.977C136.289 218.977 136.744 218.837 137.115 218.557C137.486 218.273 137.768 217.881 137.962 217.381C138.155 216.877 138.251 216.295 138.251 215.636C138.251 214.985 138.157 214.415 137.967 213.926C137.778 213.434 137.498 213.051 137.126 212.778C136.755 212.502 136.297 212.364 135.751 212.364C135.183 212.364 134.71 212.509 134.331 212.801C133.956 213.089 133.674 213.481 133.484 213.977C133.299 214.47 133.206 215.023 133.206 215.636C133.206 216.258 133.301 216.822 133.49 217.33C133.683 217.833 133.967 218.235 134.342 218.534C134.721 218.83 135.191 218.977 135.751 218.977Z" fill="#1A1919"/>
<path d="M189.205 220V218.977L193.045 214.773C193.496 214.28 193.867 213.852 194.159 213.489C194.451 213.121 194.667 212.777 194.807 212.455C194.951 212.129 195.023 211.788 195.023 211.432C195.023 211.023 194.924 210.669 194.727 210.369C194.534 210.07 194.269 209.839 193.932 209.676C193.595 209.513 193.216 209.432 192.795 209.432C192.348 209.432 191.958 209.525 191.625 209.71C191.295 209.892 191.04 210.148 190.858 210.477C190.68 210.807 190.591 211.193 190.591 211.636H189.25C189.25 210.955 189.407 210.356 189.722 209.841C190.036 209.326 190.464 208.924 191.006 208.636C191.551 208.348 192.163 208.205 192.841 208.205C193.523 208.205 194.127 208.348 194.653 208.636C195.18 208.924 195.593 209.312 195.892 209.801C196.191 210.29 196.341 210.833 196.341 211.432C196.341 211.86 196.263 212.278 196.108 212.688C195.956 213.093 195.691 213.545 195.312 214.045C194.938 214.542 194.417 215.148 193.75 215.864L191.136 218.659V218.75H196.545V220H189.205ZM202.688 220.159C201.831 220.159 201.102 219.926 200.5 219.46C199.898 218.991 199.438 218.311 199.119 217.42C198.801 216.527 198.642 215.447 198.642 214.182C198.642 212.924 198.801 211.85 199.119 210.96C199.441 210.066 199.903 209.384 200.506 208.915C201.112 208.441 201.839 208.205 202.688 208.205C203.536 208.205 204.261 208.441 204.864 208.915C205.47 209.384 205.932 210.066 206.25 210.96C206.572 211.85 206.733 212.924 206.733 214.182C206.733 215.447 206.574 216.527 206.256 217.42C205.938 218.311 205.477 218.991 204.875 219.46C204.273 219.926 203.544 220.159 202.688 220.159ZM202.688 218.909C203.536 218.909 204.195 218.5 204.665 217.682C205.134 216.864 205.369 215.697 205.369 214.182C205.369 213.174 205.261 212.316 205.045 211.608C204.833 210.9 204.527 210.36 204.125 209.989C203.727 209.617 203.248 209.432 202.688 209.432C201.847 209.432 201.189 209.847 200.716 210.676C200.242 211.502 200.006 212.67 200.006 214.182C200.006 215.189 200.112 216.045 200.324 216.75C200.536 217.455 200.841 217.991 201.239 218.358C201.64 218.725 202.123 218.909 202.688 218.909ZM214.824 217.818V217.205C214.824 216.78 214.911 216.392 215.085 216.04C215.263 215.684 215.521 215.4 215.858 215.188C216.199 214.972 216.612 214.864 217.097 214.864C217.589 214.864 218.002 214.972 218.335 215.188C218.669 215.4 218.92 215.684 219.091 216.04C219.261 216.392 219.347 216.78 219.347 217.205V217.818C219.347 218.242 219.259 218.633 219.085 218.989C218.915 219.341 218.661 219.625 218.324 219.841C217.991 220.053 217.581 220.159 217.097 220.159C216.604 220.159 216.189 220.053 215.852 219.841C215.515 219.625 215.259 219.341 215.085 218.989C214.911 218.633 214.824 218.242 214.824 217.818ZM215.983 217.205V217.818C215.983 218.17 216.066 218.487 216.233 218.767C216.4 219.044 216.688 219.182 217.097 219.182C217.494 219.182 217.775 219.044 217.938 218.767C218.104 218.487 218.188 218.17 218.188 217.818V217.205C218.188 216.852 218.108 216.538 217.949 216.261C217.79 215.981 217.506 215.841 217.097 215.841C216.699 215.841 216.413 215.981 216.239 216.261C216.068 216.538 215.983 216.852 215.983 217.205ZM209.028 211.159V210.545C209.028 210.121 209.116 209.733 209.29 209.381C209.468 209.025 209.725 208.741 210.062 208.528C210.403 208.312 210.816 208.205 211.301 208.205C211.794 208.205 212.206 208.312 212.54 208.528C212.873 208.741 213.125 209.025 213.295 209.381C213.466 209.733 213.551 210.121 213.551 210.545V211.159C213.551 211.583 213.464 211.973 213.29 212.33C213.119 212.682 212.866 212.966 212.528 213.182C212.195 213.394 211.786 213.5 211.301 213.5C210.809 213.5 210.394 213.394 210.057 213.182C209.72 212.966 209.464 212.682 209.29 212.33C209.116 211.973 209.028 211.583 209.028 211.159ZM210.188 210.545V211.159C210.188 211.511 210.271 211.828 210.438 212.108C210.604 212.384 210.892 212.523 211.301 212.523C211.699 212.523 211.979 212.384 212.142 212.108C212.309 211.828 212.392 211.511 212.392 211.159V210.545C212.392 210.193 212.312 209.879 212.153 209.602C211.994 209.322 211.71 209.182 211.301 209.182C210.903 209.182 210.617 209.322 210.443 209.602C210.273 209.879 210.188 210.193 210.188 210.545ZM209.46 220L217.46 208.364H218.756L210.756 220H209.46Z" fill="#1A1919"/>
<path d="M231.842 219V211.896L229.192 214.555L228.028 213.402L232.682 208.759L237.325 213.402L236.182 214.555L233.522 211.896V219H231.842Z" fill="#52C93F"/>
<circle cx="8" cy="246" r="8" fill="#FF2727"/>
<path d="M28.7727 241.614V240.364H37.5V241.614H33.8409V252H32.4318V241.614H28.7727ZM41.7727 252.182C40.9848 252.182 40.2936 251.994 39.6989 251.619C39.108 251.244 38.6458 250.72 38.3125 250.045C37.983 249.371 37.8182 248.583 37.8182 247.682C37.8182 246.773 37.983 245.979 38.3125 245.301C38.6458 244.623 39.108 244.097 39.6989 243.722C40.2936 243.347 40.9848 243.159 41.7727 243.159C42.5606 243.159 43.25 243.347 43.8409 243.722C44.4356 244.097 44.8977 244.623 45.2273 245.301C45.5606 245.979 45.7273 246.773 45.7273 247.682C45.7273 248.583 45.5606 249.371 45.2273 250.045C44.8977 250.72 44.4356 251.244 43.8409 251.619C43.25 251.994 42.5606 252.182 41.7727 252.182ZM41.7727 250.977C42.3712 250.977 42.8636 250.824 43.25 250.517C43.6364 250.21 43.9223 249.807 44.108 249.307C44.2936 248.807 44.3864 248.265 44.3864 247.682C44.3864 247.098 44.2936 246.555 44.108 246.051C43.9223 245.547 43.6364 245.14 43.25 244.83C42.8636 244.519 42.3712 244.364 41.7727 244.364C41.1742 244.364 40.6818 244.519 40.2955 244.83C39.9091 245.14 39.6231 245.547 39.4375 246.051C39.2519 246.555 39.1591 247.098 39.1591 247.682C39.1591 248.265 39.2519 248.807 39.4375 249.307C39.6231 249.807 39.9091 250.21 40.2955 250.517C40.6818 250.824 41.1742 250.977 41.7727 250.977ZM51.5696 243.273V244.409H47.0469V243.273H51.5696ZM48.3651 241.182H49.706V249.5C49.706 249.879 49.7609 250.163 49.8707 250.352C49.9844 250.538 50.1283 250.663 50.3026 250.727C50.4806 250.788 50.6681 250.818 50.8651 250.818C51.0128 250.818 51.134 250.811 51.2287 250.795C51.3234 250.777 51.3991 250.761 51.456 250.75L51.7287 251.955C51.6378 251.989 51.5109 252.023 51.348 252.057C51.1851 252.095 50.9787 252.114 50.7287 252.114C50.3499 252.114 49.9787 252.032 49.6151 251.869C49.2552 251.706 48.956 251.458 48.7173 251.125C48.4825 250.792 48.3651 250.371 48.3651 249.864V241.182ZM56.1548 252.205C55.6018 252.205 55.0999 252.1 54.6491 251.892C54.1984 251.68 53.8404 251.375 53.5753 250.977C53.3101 250.576 53.1776 250.091 53.1776 249.523C53.1776 249.023 53.276 248.617 53.473 248.307C53.67 247.992 53.9332 247.746 54.2628 247.568C54.5923 247.39 54.956 247.258 55.3537 247.17C55.7552 247.08 56.1586 247.008 56.5639 246.955C57.0942 246.886 57.5241 246.835 57.8537 246.801C58.187 246.763 58.4295 246.701 58.581 246.614C58.7363 246.527 58.8139 246.375 58.8139 246.159V246.114C58.8139 245.553 58.6605 245.117 58.3537 244.807C58.0507 244.496 57.5904 244.341 56.973 244.341C56.3329 244.341 55.831 244.481 55.4673 244.761C55.1037 245.042 54.848 245.341 54.7003 245.659L53.4276 245.205C53.6548 244.674 53.9579 244.261 54.3366 243.966C54.7192 243.667 55.1359 243.458 55.5866 243.341C56.0412 243.22 56.4882 243.159 56.9276 243.159C57.2079 243.159 57.5298 243.193 57.8935 243.261C58.2609 243.326 58.6151 243.46 58.956 243.665C59.3007 243.869 59.5866 244.178 59.8139 244.591C60.0412 245.004 60.1548 245.557 60.1548 246.25V252H58.8139V250.818H58.7457C58.6548 251.008 58.5033 251.21 58.2912 251.426C58.0791 251.642 57.7969 251.826 57.4446 251.977C57.0923 252.129 56.6624 252.205 56.1548 252.205ZM56.3594 251C56.8897 251 57.3366 250.896 57.7003 250.688C58.0677 250.479 58.3442 250.21 58.5298 249.881C58.7192 249.551 58.8139 249.205 58.8139 248.841V247.614C58.7571 247.682 58.6321 247.744 58.4389 247.801C58.2495 247.854 58.0298 247.902 57.7798 247.943C57.5336 247.981 57.2931 248.015 57.0582 248.045C56.8272 248.072 56.6397 248.095 56.4957 248.114C56.1473 248.159 55.8215 248.233 55.5185 248.335C55.2192 248.434 54.9768 248.583 54.7912 248.784C54.6094 248.981 54.5185 249.25 54.5185 249.591C54.5185 250.057 54.6908 250.409 55.0355 250.648C55.384 250.883 55.8253 251 56.3594 251ZM63.9432 240.364V252H62.6023V240.364H63.9432ZM71.081 252V240.364H75.0128C75.9257 240.364 76.6719 240.528 77.2514 240.858C77.8348 241.184 78.2666 241.625 78.5469 242.182C78.8272 242.739 78.9673 243.36 78.9673 244.045C78.9673 244.731 78.8272 245.354 78.5469 245.915C78.2704 246.475 77.8423 246.922 77.2628 247.256C76.6832 247.585 75.9408 247.75 75.0355 247.75H72.2173V246.5H74.9901C75.6151 246.5 76.117 246.392 76.4957 246.176C76.8745 245.96 77.1491 245.669 77.3196 245.301C77.4938 244.93 77.581 244.511 77.581 244.045C77.581 243.58 77.4938 243.163 77.3196 242.795C77.1491 242.428 76.8726 242.14 76.4901 241.932C76.1075 241.72 75.5999 241.614 74.9673 241.614H72.4901V252H71.081ZM84.6207 252.182C83.7798 252.182 83.0545 251.996 82.4446 251.625C81.8385 251.25 81.3707 250.727 81.0412 250.057C80.7154 249.383 80.5526 248.598 80.5526 247.705C80.5526 246.811 80.7154 246.023 81.0412 245.341C81.3707 244.655 81.8291 244.121 82.4162 243.739C83.0071 243.352 83.6965 243.159 84.4844 243.159C84.9389 243.159 85.3878 243.235 85.831 243.386C86.2741 243.538 86.6776 243.784 87.0412 244.125C87.4048 244.462 87.6946 244.909 87.9105 245.466C88.1264 246.023 88.2344 246.708 88.2344 247.523V248.091H81.5071V246.932H86.8707C86.8707 246.439 86.7723 246 86.5753 245.614C86.3821 245.227 86.1056 244.922 85.7457 244.699C85.3897 244.475 84.9692 244.364 84.4844 244.364C83.9503 244.364 83.4882 244.496 83.098 244.761C82.7116 245.023 82.4143 245.364 82.206 245.784C81.9976 246.205 81.8935 246.655 81.8935 247.136V247.909C81.8935 248.568 82.0071 249.127 82.2344 249.585C82.4654 250.04 82.7855 250.386 83.1946 250.625C83.6037 250.86 84.0791 250.977 84.6207 250.977C84.973 250.977 85.2912 250.928 85.5753 250.83C85.8632 250.727 86.1113 250.576 86.3196 250.375C86.5279 250.17 86.6889 249.917 86.8026 249.614L88.098 249.977C87.9616 250.417 87.7325 250.803 87.4105 251.136C87.0885 251.466 86.6908 251.723 86.2173 251.909C85.7438 252.091 85.2116 252.182 84.6207 252.182ZM91.6151 246.75V252H90.2741V243.273H91.5696V244.636H91.6832C91.8878 244.193 92.1984 243.837 92.6151 243.568C93.0317 243.295 93.5696 243.159 94.2287 243.159C94.8196 243.159 95.3366 243.28 95.7798 243.523C96.223 243.761 96.5677 244.125 96.8139 244.614C97.0601 245.098 97.1832 245.712 97.1832 246.455V252H95.8423V246.545C95.8423 245.86 95.6643 245.326 95.3082 244.943C94.9522 244.557 94.4635 244.364 93.8423 244.364C93.4143 244.364 93.0317 244.456 92.6946 244.642C92.3613 244.828 92.098 245.098 91.9048 245.455C91.7116 245.811 91.6151 246.242 91.6151 246.75ZM102.929 252.182C102.202 252.182 101.56 251.998 101.003 251.631C100.446 251.259 100.01 250.737 99.696 250.062C99.3816 249.384 99.2244 248.583 99.2244 247.659C99.2244 246.742 99.3816 245.947 99.696 245.273C100.01 244.598 100.448 244.078 101.009 243.71C101.569 243.343 102.217 243.159 102.952 243.159C103.52 243.159 103.969 243.254 104.298 243.443C104.632 243.629 104.885 243.841 105.06 244.08C105.238 244.314 105.376 244.508 105.474 244.659H105.588V240.364H106.929V252H105.634V250.659H105.474C105.376 250.818 105.236 251.019 105.054 251.261C104.872 251.5 104.613 251.714 104.276 251.903C103.938 252.089 103.49 252.182 102.929 252.182ZM103.111 250.977C103.649 250.977 104.103 250.837 104.474 250.557C104.846 250.273 105.128 249.881 105.321 249.381C105.514 248.877 105.611 248.295 105.611 247.636C105.611 246.985 105.516 246.415 105.327 245.926C105.137 245.434 104.857 245.051 104.486 244.778C104.115 244.502 103.656 244.364 103.111 244.364C102.543 244.364 102.069 244.509 101.69 244.801C101.315 245.089 101.033 245.481 100.844 245.977C100.658 246.47 100.565 247.023 100.565 247.636C100.565 248.258 100.66 248.822 100.849 249.33C101.043 249.833 101.327 250.235 101.702 250.534C102.08 250.83 102.55 250.977 103.111 250.977ZM109.571 252V243.273H110.912V252H109.571ZM110.253 241.818C109.991 241.818 109.766 241.729 109.577 241.551C109.391 241.373 109.298 241.159 109.298 240.909C109.298 240.659 109.391 240.445 109.577 240.267C109.766 240.089 109.991 240 110.253 240C110.514 240 110.738 240.089 110.923 240.267C111.113 240.445 111.207 240.659 111.207 240.909C111.207 241.159 111.113 241.373 110.923 241.551C110.738 241.729 110.514 241.818 110.253 241.818ZM114.709 246.75V252H113.368V243.273H114.663V244.636H114.777C114.982 244.193 115.292 243.837 115.709 243.568C116.125 243.295 116.663 243.159 117.322 243.159C117.913 243.159 118.43 243.28 118.874 243.523C119.317 243.761 119.661 244.125 119.908 244.614C120.154 245.098 120.277 245.712 120.277 246.455V252H118.936V246.545C118.936 245.86 118.758 245.326 118.402 244.943C118.046 244.557 117.557 244.364 116.936 244.364C116.508 244.364 116.125 244.456 115.788 244.642C115.455 244.828 115.192 245.098 114.999 245.455C114.805 245.811 114.709 246.242 114.709 246.75ZM126.25 255.455C125.602 255.455 125.045 255.371 124.58 255.205C124.114 255.042 123.725 254.826 123.415 254.557C123.108 254.292 122.864 254.008 122.682 253.705L123.75 252.955C123.871 253.114 124.025 253.295 124.21 253.5C124.396 253.708 124.65 253.888 124.972 254.04C125.297 254.195 125.723 254.273 126.25 254.273C126.955 254.273 127.536 254.102 127.994 253.761C128.453 253.42 128.682 252.886 128.682 252.159V250.386H128.568C128.47 250.545 128.33 250.742 128.148 250.977C127.97 251.208 127.712 251.415 127.375 251.597C127.042 251.775 126.591 251.864 126.023 251.864C125.318 251.864 124.686 251.697 124.125 251.364C123.568 251.03 123.127 250.545 122.801 249.909C122.479 249.273 122.318 248.5 122.318 247.591C122.318 246.697 122.475 245.919 122.79 245.256C123.104 244.589 123.542 244.074 124.102 243.71C124.663 243.343 125.311 243.159 126.045 243.159C126.614 243.159 127.064 243.254 127.398 243.443C127.735 243.629 127.992 243.841 128.17 244.08C128.352 244.314 128.492 244.508 128.591 244.659H128.727V243.273H130.023V252.25C130.023 253 129.852 253.61 129.511 254.08C129.174 254.553 128.72 254.9 128.148 255.119C127.58 255.343 126.947 255.455 126.25 255.455ZM126.205 250.659C126.742 250.659 127.197 250.536 127.568 250.29C127.939 250.044 128.222 249.689 128.415 249.227C128.608 248.765 128.705 248.212 128.705 247.568C128.705 246.939 128.61 246.384 128.42 245.903C128.231 245.422 127.951 245.045 127.58 244.773C127.208 244.5 126.75 244.364 126.205 244.364C125.636 244.364 125.163 244.508 124.784 244.795C124.409 245.083 124.127 245.47 123.938 245.955C123.752 246.439 123.659 246.977 123.659 247.568C123.659 248.174 123.754 248.71 123.943 249.176C124.136 249.638 124.42 250.002 124.795 250.267C125.174 250.528 125.644 250.659 126.205 250.659Z" fill="#1A1919"/>
<path d="M189.205 252V250.977L193.045 246.773C193.496 246.28 193.867 245.852 194.159 245.489C194.451 245.121 194.667 244.777 194.807 244.455C194.951 244.129 195.023 243.788 195.023 243.432C195.023 243.023 194.924 242.669 194.727 242.369C194.534 242.07 194.269 241.839 193.932 241.676C193.595 241.513 193.216 241.432 192.795 241.432C192.348 241.432 191.958 241.525 191.625 241.71C191.295 241.892 191.04 242.148 190.858 242.477C190.68 242.807 190.591 243.193 190.591 243.636H189.25C189.25 242.955 189.407 242.356 189.722 241.841C190.036 241.326 190.464 240.924 191.006 240.636C191.551 240.348 192.163 240.205 192.841 240.205C193.523 240.205 194.127 240.348 194.653 240.636C195.18 240.924 195.593 241.312 195.892 241.801C196.191 242.29 196.341 242.833 196.341 243.432C196.341 243.86 196.263 244.278 196.108 244.688C195.956 245.093 195.691 245.545 195.312 246.045C194.938 246.542 194.417 247.148 193.75 247.864L191.136 250.659V250.75H196.545V252H189.205ZM202.756 252.159C202.278 252.152 201.801 252.061 201.324 251.886C200.847 251.712 200.411 251.419 200.017 251.006C199.623 250.589 199.307 250.027 199.068 249.318C198.83 248.606 198.71 247.712 198.71 246.636C198.71 245.606 198.807 244.693 199 243.898C199.193 243.098 199.473 242.426 199.841 241.881C200.208 241.331 200.652 240.915 201.17 240.631C201.693 240.347 202.282 240.205 202.938 240.205C203.589 240.205 204.169 240.335 204.676 240.597C205.188 240.854 205.604 241.214 205.926 241.676C206.248 242.138 206.456 242.67 206.551 243.273H205.165C205.036 242.75 204.786 242.316 204.415 241.972C204.044 241.627 203.551 241.455 202.938 241.455C202.036 241.455 201.326 241.847 200.807 242.631C200.292 243.415 200.032 244.515 200.028 245.932H200.119C200.331 245.61 200.583 245.335 200.875 245.108C201.17 244.877 201.496 244.699 201.852 244.574C202.208 244.449 202.585 244.386 202.983 244.386C203.65 244.386 204.259 244.553 204.812 244.886C205.366 245.216 205.809 245.672 206.142 246.256C206.475 246.835 206.642 247.5 206.642 248.25C206.642 248.97 206.481 249.629 206.159 250.227C205.837 250.822 205.384 251.295 204.801 251.648C204.222 251.996 203.54 252.167 202.756 252.159ZM202.756 250.909C203.233 250.909 203.661 250.79 204.04 250.551C204.422 250.312 204.723 249.992 204.943 249.591C205.167 249.189 205.278 248.742 205.278 248.25C205.278 247.769 205.17 247.331 204.955 246.938C204.742 246.54 204.449 246.223 204.074 245.989C203.703 245.754 203.278 245.636 202.801 245.636C202.441 245.636 202.106 245.708 201.795 245.852C201.485 245.992 201.212 246.186 200.977 246.432C200.746 246.678 200.564 246.96 200.432 247.278C200.299 247.593 200.233 247.924 200.233 248.273C200.233 248.735 200.341 249.167 200.557 249.568C200.777 249.97 201.076 250.294 201.455 250.54C201.837 250.786 202.271 250.909 202.756 250.909ZM214.808 249.818V249.205C214.808 248.78 214.895 248.392 215.07 248.04C215.248 247.684 215.505 247.4 215.842 247.188C216.183 246.972 216.596 246.864 217.081 246.864C217.573 246.864 217.986 246.972 218.32 247.188C218.653 247.4 218.905 247.684 219.075 248.04C219.246 248.392 219.331 248.78 219.331 249.205V249.818C219.331 250.242 219.244 250.633 219.07 250.989C218.899 251.341 218.645 251.625 218.308 251.841C217.975 252.053 217.566 252.159 217.081 252.159C216.589 252.159 216.174 252.053 215.837 251.841C215.5 251.625 215.244 251.341 215.07 250.989C214.895 250.633 214.808 250.242 214.808 249.818ZM215.967 249.205V249.818C215.967 250.17 216.051 250.487 216.217 250.767C216.384 251.044 216.672 251.182 217.081 251.182C217.479 251.182 217.759 251.044 217.922 250.767C218.089 250.487 218.172 250.17 218.172 249.818V249.205C218.172 248.852 218.092 248.538 217.933 248.261C217.774 247.981 217.49 247.841 217.081 247.841C216.683 247.841 216.397 247.981 216.223 248.261C216.053 248.538 215.967 248.852 215.967 249.205ZM209.013 243.159V242.545C209.013 242.121 209.1 241.733 209.274 241.381C209.452 241.025 209.71 240.741 210.047 240.528C210.388 240.312 210.801 240.205 211.286 240.205C211.778 240.205 212.191 240.312 212.524 240.528C212.857 240.741 213.109 241.025 213.28 241.381C213.45 241.733 213.536 242.121 213.536 242.545V243.159C213.536 243.583 213.448 243.973 213.274 244.33C213.104 244.682 212.85 244.966 212.513 245.182C212.179 245.394 211.77 245.5 211.286 245.5C210.793 245.5 210.378 245.394 210.041 245.182C209.704 244.966 209.448 244.682 209.274 244.33C209.1 243.973 209.013 243.583 209.013 243.159ZM210.172 242.545V243.159C210.172 243.511 210.255 243.828 210.422 244.108C210.589 244.384 210.876 244.523 211.286 244.523C211.683 244.523 211.964 244.384 212.126 244.108C212.293 243.828 212.376 243.511 212.376 243.159V242.545C212.376 242.193 212.297 241.879 212.138 241.602C211.979 241.322 211.695 241.182 211.286 241.182C210.888 241.182 210.602 241.322 210.428 241.602C210.257 241.879 210.172 242.193 210.172 242.545ZM209.445 252L217.445 240.364H218.74L210.74 252H209.445Z" fill="#1A1919"/>
<path d="M233.522 240.818V247.923L236.172 245.263L237.335 246.416L232.682 251.06L228.038 246.416L229.182 245.263L231.842 247.923V240.818H233.522Z" fill="#FF2727"/>
</svg>
